<svg xmlns="http://www.w3.org/2000/svg" id="Layer_1" version="1.1" viewBox="0 0 1594.6 500">
  <!-- Generator: Adobe Illustrator 29.0.1, SVG Export Plug-In . SVG Version: 2.1.0 Build 192)  -->
  <defs>
    <style>
      .st0 {
        fill: #144574;
      }

      .st1 {
        fill: #1b61ab;
      }

      .st2 {
        fill: #1b75b6;
      }

      .st3 {
        fill: #ee6a28;
      }
    </style>
  </defs>
  <path class="st1" d="M219.9,499.5c-.4.5-.9.6-1.5.4-.7-.3-1.4-.7-2.1-1.1-22.5-12.4-44.9-24.9-67.4-37.3-3.6-2-3.2-1.1-3.2-5.3,0-51.8,0-103.6,0-155.4,0-5,.7-3.8-3.7-6.4-21.6-12.4-43.2-24.8-64.8-37.1-1-.6-2.1-1.1-3-1.6-.8.5-.6,1.1-.6,1.6,0,1,0,2,0,3v153.4c0,1.2,0,2.4,0,3.8-1.4-.2-2.4-1-3.5-1.6-13.2-7.3-26.3-14.6-39.5-21.9-8.9-4.9-17.8-9.9-26.7-14.8-.2-.1-.4-.2-.6-.3-3.1-1.8-2.8-1-2.8-4.5,0-5.4,0-10.8,0-16.3,0-37.6,0-75.2-.1-112.9,0-19.8,0-39.6,0-59.4,0-22.5-.2-44.9-.2-67.4,0-1.3-.3-2.7.4-3.9,1.1.6,2.1,1.2,3.2,1.8,70.6,41.9,141.2,83.9,211.8,125.8,1.2.7,2.5,1.4,3.8,2,0,1.3-.1,2.6-.1,4v247c0,1,0,2,0,3,0,.6.3,1.1.7,1.4h0Z"/>
  <path class="st0" d="M219.9,499.5c-.5-.4-.7-.8-.7-1.4,0-1,0-2,0-3v-247c0-1.3,0-2.6.1-4,.9-.6,1.8-1.2,2.8-1.8,47.7-28.4,95.5-56.7,143.2-85.1,24.1-14.3,48.1-28.6,72.2-42.9.5,1.2.3,2.4.3,3.6,0,17.4-.1,34.7-.2,52.1,0,23.1-.2,46.2-.3,69.4-.1,36.7-.2,73.5-.2,110.2,0,8.3,0,16.6-.1,24.9,0,.5,0,1.1,0,1.7,0,.7-.3,1.3-1,1.6-.7.4-1.4.8-2,1.1-22.2,12.3-44.5,24.7-66.7,37-.9.5-1.8,1.2-3.2,1.4,0-1.5,0-2.8,0-4.1v-153.4c0-1.1,0-2.2,0-3.3,0-.9-.5-1.1-1.3-.6-.7.4-1.4.7-2,1.1-22,12.6-43.9,25.2-65.9,37.9-.2.1-.4.3-.6.3-1.9.7-2.3,2-2.3,3.9,0,18.6,0,37.2,0,55.8,0,33.6,0,67.3,0,100.9,0,4.7.6,3.5-3.5,5.8-21.8,12.1-43.7,24.3-65.6,36.4-1,.5-2,1-2.9,1.5h0Z"/>
  <path class="st2" d="M871.4,211c1.2.2,1.7-.7,2.3-1.2,6.7-5.4,13.8-10.2,21.4-14.2,7.2-3.9,14.8-6.3,23-7.1,2.8-.3,5.6-.3,8.3-.1,5.2.2,10.3.9,15.3,2.3,6.5,1.8,12.3,5.1,17.6,9.3,4.8,3.8,9,8.1,12.8,12.9.5.7,1.1,1.4,1.6,2.1.6.8,1.1.8,1.9,0,3.7-3.5,7.4-6.8,11.6-9.7,12.6-8.6,26.4-14.3,41.6-16.2,10.2-1.3,20.4-1.3,30.5,1.1,15.8,3.8,27.9,12.6,36.5,26.3,5.6,8.9,9.1,18.5,11.3,28.7,2,9.3,2.8,18.7,2.8,28.2,0,40.5,0,81.1,0,121.6s0,1.5,0,2.3c0,1.9-.3,2.1-2.2,2.1-6.6,0-13.1,0-19.7,0h-23.1c-1,0-2,0-3,0-.9,0-1.4-.6-1.4-1.5,0-1.1,0-2.3,0-3.4v-120.1c0-3,0-6-.6-9-2.4-13.1-15.2-26.1-30-27.7-20.5-2.2-33.6,11.9-37.5,23.8-1.3,4-1.8,8.1-1.8,12.3v120.8c0,1.1,0,2.3,0,3.4,0,.7-.4,1.2-1.1,1.2-.8,0-1.5,0-2.3,0h-42.4c-3.6,0-3.4,0-3.4-3.6v-121.6c0-3.2,0-6.3-.8-9.4-.9-4-2.4-7.7-4.7-11.1-5.2-7.7-12-13.3-21.3-15.3-20.8-4.4-36.5,7.7-41.8,23.3-.8,2.4-1.3,4.9-1.4,7.4,0,2.3-.2,4.5-.2,6.8v118.2c0,1.3,0,2.5,0,3.8,0,.8-.5,1.4-1.4,1.5-.6,0-1.3,0-1.9,0h-42.8c-3.3,0-3.3,0-3.3-3.3,0-4.9,0-9.9,0-14.8v-182.2c0-5.8-.7-5.1,5-5.1,13.4,0,26.8,0,40.2,0s2,0,3,0c.7,0,1.2.4,1.2,1.2,0,.9,0,1.8,0,2.6,0,3.7,0,7.3,0,11,0,.7-.1,1.5.3,2.1h0Z"/>
  <path class="st2" d="M1373.2,296.4v98.5c0,5,.5,4.5-4.4,4.5-13.5,0-27,0-40.6,0s-1.8,0-2.7,0c-1.4,0-1.7-.3-1.7-1.9,0-1.1,0-2.3,0-3.4v-97c0-6.2-.8-12.3-2.6-18.3-5.1-17.6-22.3-36.7-46.3-40.6-27.6-4.4-53,9.8-64.1,33.4-3.2,6.8-4.9,14-5.2,21.6-.2,5.4,0,10.8,1.2,16.2,2.1,9.7,6.6,18.2,13.1,25.7,8.9,10.3,20,16.8,33.5,19.2,10,1.8,19.8,1.4,29.6-1.7,1-.3,1.9-.6,2.9-.9.7-.2,1.2.1,1.5.7.3.7.6,1.4.9,2.1,5.1,12.6,10.2,25.3,15.2,37.9.2.6.5,1.2.7,1.8.2.5,0,1-.4,1.3-.7.4-1.3.7-2,1-7,3.2-14.4,5.3-22.1,6.6-7.8,1.3-15.6,1.8-23.4,1.5-29.8-1.4-54.7-13.1-74.2-35.8-13.5-15.7-21.6-34.1-24.6-54.5-3.6-25.2-.2-49.4,12-71.9,13.5-24.9,33.8-41.7,61-50.1,6.9-2.1,14-3.2,21.2-3.8,11.2-.9,22.2-.2,33.1,2.3,12.7,2.9,24.2,8.6,34.9,16,1,.7,2.1,1.5,3.1,2.2.4.3,1,0,1-.6,0-3.4,0-6.8,0-10.2,0-5.2-.6-4.7,4.6-4.7,13.5,0,27,0,40.6,0s4.2-.3,4.2,4v98.9h0Z"/>
  <path class="st2" d="M1449.1,208.9c1.8-.6,2.7-1.6,3.7-2.3,9.6-7.2,19.9-12.9,31.6-15.9,9.6-2.5,19.4-3.1,29.3-2.2,8,.7,15.8,2.2,23.2,5.1,18.2,7,32.3,19,42.5,35.5,7,11.4,11.5,23.8,13.7,37,1,6.2,1.5,12.5,1.5,18.8,0,36.7,0,73.5,0,110.2s.3,4.2-4,4.2h-41.3c-.8,0-1.5,0-2.3,0-1.4,0-1.7-.3-1.7-1.9,0-1.1,0-2.3,0-3.4,0-36,0-71.9,0-107.9,0-5.1-.6-10.1-2-14.9-2.6-9-8.1-16.2-15.1-22.3-9.2-8-19.9-11.7-32-11.5-25.8.4-41.2,19.3-45.2,34.5-1.2,4.7-1.8,9.4-1.9,14.2v109.1c0,4.5.3,4.1-4,4.1h-41.3c-.6,0-1.3,0-1.9,0-1.8,0-2-.2-2.1-1.9,0-.9,0-1.8,0-2.6v-196.2c0-5.2-.6-4.7,4.6-4.7,13.8,0,27.5,0,41.3,0s3.4,0,3.4,3.2v11.6h0Z"/>
  <path class="st3" d="M411.8,114.4c.1-.2,0-.5-.1-.7-.5-.4-1.1-.7-1.7-1.1-1.6-1-26.5-15.8-57.8-34.3C301.1,47.9,233,7.6,221.6.8c-.5-.3-.9-.5-1.4-.8,0,0,0,0-.2.1-1.8,1.1-16.7,9.9-37.4,22.2-6,3.5-12.4,7.4-19.1,11.4-19,11.2-40.4,24-60.4,35.8,10.4,6.2,37.8,22.4,56.6,33.6,22.2-13.2,56.4-33.5,60.3-35.8h0c0,0,.2,0,.2-.1,1.1.7,8.7,5.2,18.8,11.2,16,9.5,38.2,22.7,50.8,30.2,2.2,1.3,4.1,2.4,5.7,3.4,2.4,1.4,3.9,2.3,4.1,2.5l-79.5,47.2c-.3-.2-1.8-1-4.1-2.4-1.5-.9-3.4-2.1-5.7-3.4-14.2-8.4-40.6-24.1-56.6-33.6h-.2c-1.9-1-48.8-28.9-69.7-41.3-14.8,8.8-27.8,16.5-37.4,22.2-9.4,5.6-15.4,9.1-16.1,9.6-.6.3-1.1.7-1.7,1.1-.2.2-.3.5-.2.7,0,0,0,0,0,0,.7,1.1,1.8,1.4,2.7,2,25.7,15.3,79,47,122.6,72.9,31.3,18.6,57.6,34.2,65.4,38.8.3.2.6.4.9.5.3-.2.6-.4.9-.5,18.6-11,143.9-85.5,188-111.8.9-.6,2-.9,2.7-2,0,0,0,0,0,0h0Z"/>
  <path class="st2" d="M788,203.3c-7.2-17.7-17.1-33-29.7-46.1-12.7-13.1-27.6-23.5-44.9-31.1-17.3-7.7-35.9-11.5-55.8-11.5s-38.6,3.8-55.8,11.5c-17.3,7.7-32.2,18.1-44.9,31.1s-22.6,28.5-29.7,46.1c-7.1,17.7-10.7,36.5-10.7,56.4s3.6,38.8,10.7,56.4c7.1,17.7,17.1,33.1,29.7,46.3,12.7,13.2,27.6,23.6,44.9,31.1,17.2,7.6,35.8,11.3,55.8,11.3s34.8-4.5,34.8-4.5c15.6-3.8,30-10,43.1-18.8s24.3-19.3,33.8-31.8c9.4-12.4,16.7-26.3,21.8-41.7s7.7-31.5,7.7-48.5-3.6-38.8-10.7-56.4ZM734.8,294.3c-3.8,10.9-9,20.5-15.8,28.7-6.7,8.2-14.8,15-24.1,20.2-9.3,5.3-19.6,8.3-30.9,9.1h-6.5c-12.1,0-23.3-2.4-33.4-7.3-10.1-4.8-18.9-11.5-26.3-19.8-7.4-8.3-13.2-18.2-17.4-29.5-4.2-11.3-6.3-23.3-6.3-36s2.1-24.7,6.3-36,10-21.2,17.4-29.5c7.4-8.4,16.2-15,26.3-19.8,10.1-4.9,21.2-7.3,33.4-7.3s23.2,2.4,33.4,7.3c10.1,4.8,18.8,11.5,26.1,19.8,7.3,8.4,13,18.2,17.2,29.5s6.3,23.3,6.3,36-1.9,23.7-5.7,34.6Z"/>
</svg>